<svg width="176" height="141" viewBox="0 0 176 141" fill="none" xmlns="http://www.w3.org/2000/svg">
<path d="M172.791 4.27795L172.799 4.28674C138.231 41.8396 138.231 99.6239 172.799 137.185L175.859 140.52L172.524 137.452C157.656 123.756 139.603 115.507 120.893 112.663C125.034 121.419 130.522 129.702 137.399 137.177L140.46 140.511L137.125 137.443C123.013 124.454 106.05 116.346 88.3708 113.12C70.6921 116.346 53.7284 124.454 39.6169 137.443L36.283 140.511L39.3513 137.177C46.2365 129.702 51.7248 121.411 55.866 112.655C37.156 115.499 19.094 123.747 4.21753 137.443L0.883545 140.511L3.9519 137.177C38.5196 99.6244 38.5196 41.8392 3.9519 4.27795L0.883545 0.94397L4.21753 4.01233C19.094 17.708 37.1473 25.9565 55.8572 28.8004C51.7161 20.036 46.2282 11.7535 39.3513 4.27795L36.283 0.94397L39.6169 4.01233C51.0297 14.5171 64.3086 21.8276 78.322 25.9469V46.567L83.1199 105.256H92.533L97.0544 46.567V26.3356C111.57 22.2964 125.342 14.8576 137.125 4.01233L140.46 0.94397L137.391 4.27795C130.514 11.7536 125.026 20.0442 120.885 28.8004C139.594 25.9565 157.648 17.7079 172.524 4.01233L175.859 0.94397L172.791 4.27795ZM96.6853 137.554H78.322V118.36H96.6853V137.554ZM97.0544 26.3356C94.1855 27.1339 91.2883 27.8022 88.3708 28.3346C84.99 27.7176 81.6356 26.921 78.322 25.9469V1.99573H97.0544V26.3356Z" fill="white"/>
</svg>
